<svg xmlns="http://www.w3.org/2000/svg" viewBox="0 0 16 16"><path fill="#7d8b92" d="M1.5 9.5h4v5h-4z"/><path fill="#bfc9d0" d="M5.5 7.5h5v7h-5z"/><path fill="#7d8b92" d="M5.5 4.5h3v3h-3z"/><path fill="#bfc9d0" d="M1.5 1.5h4v8h-4z"/><path d="M5.5 1.5v13M1.5 9.5h4M5.5 4.5h3v3" fill="none" stroke="#525c62" stroke-dashoffset=".5"/><path d="M5.5 7.5h5" fill="none" stroke="#525c62"/><path d="M2.5 10v4M2.5 2v7M6.5 8v6M6.5 5v2" opacity=".2" fill="none" stroke="#fff"/><path d="M10.5 9V1.5h-9v13h9V12M7 10.5h7" fill="none" stroke="#4d4d4d"/><path d="M12.5 8.5l2 2-2 2" fill="none" stroke="#4d4d4d" stroke-linecap="round" stroke-linejoin="round"/></svg>